<svg width="26" height="24" viewBox="0 0 26 24" fill="none" xmlns="http://www.w3.org/2000/svg">
<path d="M18.6727 19.9024L16.1416 23.0366C15.7414 23.5323 14.9859 23.5323 14.5856 23.0366L12.0545 19.9024H5.90909C5.59565 19.9024 5.29505 19.7791 5.07342 19.5595C4.85179 19.34 4.72727 19.0422 4.72727 18.7317V5.97424C4.72727 5.66375 4.85179 5.36597 5.07342 5.14641C5.29505 4.92686 5.59565 4.80351 5.90909 4.80351H24.8182C25.1316 4.80351 25.4322 4.92686 25.6539 5.14641C25.8755 5.36597 26 5.66375 26 5.97424V18.7317C26 19.0422 25.8755 19.34 25.6539 19.5595C25.4322 19.7791 25.1316 19.9024 24.8182 19.9024H18.6727ZM1.18182 0H20.2727C20.825 0 21.2727 0.447715 21.2727 1V1.34146C21.2727 1.89375 20.825 2.34146 20.2727 2.34146H2.36364V14.2195C2.36364 14.7718 1.91592 15.2195 1.36364 15.2195H1C0.447715 15.2195 0 14.7718 0 14.2195V1.17073C0 0.860234 0.124513 0.562454 0.346146 0.342899C0.56778 0.123345 0.86838 0 1.18182 0Z" fill="#3D90EF" fill-opacity="0.99"/>
</svg>
