<svg width="40" height="39" viewBox="0 0 40 39" fill="none" xmlns="http://www.w3.org/2000/svg">
<path fill-rule="evenodd" clip-rule="evenodd" d="M5 0C3.67392 0 2.40215 0.526784 1.46447 1.46447C0.526784 2.40215 0 3.67392 0 5L0 25C0 26.3261 0.526784 27.5979 1.46447 28.5355C2.40215 29.4732 3.67392 30 5 30H11.25C11.6381 30 12.0209 30.0904 12.368 30.2639C12.7152 30.4375 13.0171 30.6895 13.25 31L18 37.3325C18.2329 37.643 18.5348 37.895 18.882 38.0686C19.2291 38.2421 19.6119 38.3325 20 38.3325C20.3881 38.3325 20.7709 38.2421 21.118 38.0686C21.4652 37.895 21.7671 37.643 22 37.3325L26.75 31C26.9829 30.6895 27.2848 30.4375 27.632 30.2639C27.9791 30.0904 28.3619 30 28.75 30H35C36.3261 30 37.5979 29.4732 38.5355 28.5355C39.4732 27.5979 40 26.3261 40 25V5C40 3.67392 39.4732 2.40215 38.5355 1.46447C37.5979 0.526784 36.3261 0 35 0L5 0Z" fill="#3D90EF"/>
</svg>
