<svg width="154" height="147" viewBox="0 0 154 147" fill="none" xmlns="http://www.w3.org/2000/svg">
<path d="M153.957 38.2948V35.088L80.6113 0L7.33024 35.057V38.3252L80.6113 73.3831L153.957 38.2948Z" fill="#AAAAAA" fill-opacity="0.99"/>
<path d="M32.7182 56.8662V77.8362L76.8982 98.9717H84.3221L128.381 77.8943C128.423 77.8019 128.463 77.7099 128.502 77.6169V56.8659L80.6101 79.7771L32.7182 56.8662Z" fill="#AAAAAA" fill-opacity="0.99"/>
<path d="M146.232 48.1491V88.9447L150.011 100.38L144.298 107.974H142.365L136.652 100.38L140.431 88.9447V51.0542L146.232 48.1491Z" fill="#AAAAAA" fill-opacity="0.99"/>
<path d="M98.8482 136.39C95.9788 142.091 91.5783 146.065 87.7574 146.855C86.4738 147.121 85.2556 147.027 84.1828 146.519C84.1695 146.513 84.1562 146.506 84.143 146.5L84.141 146.504C84.137 146.5 84.133 146.496 84.1289 146.493C83.3801 146.127 82.754 145.58 82.2519 144.885C73.6692 137.739 61.0432 129.848 46.2257 122.822C31.0266 115.615 16.5048 110.734 5.3029 108.639C3.45359 108.293 1.7977 107.189 1.04987 105.496C-0.474024 102.043 0.105104 96.4024 2.89119 90.8654C4.86161 86.9494 7.55338 83.8461 10.2844 82.0269L10.2696 82.0159C11.3848 81.2789 12.5249 80.7429 13.606 80.467C13.8177 80.4129 14.0305 80.3728 14.2434 80.3461C15.8902 80.1274 17.55 80.7123 18.815 81.7854C26.5452 88.3465 37.7627 95.5788 51.0104 102.214L50.9408 102.18C49.6464 101.567 48.1362 101.593 46.6207 102.14C46.1286 102.312 45.6359 102.54 45.1497 102.82C45.0533 102.875 44.9572 102.933 44.8617 102.992C44.0636 103.487 43.2877 104.122 42.5646 104.876C40.8746 105.09 39.3115 106.115 38.4956 107.736C38.0092 108.702 37.8632 109.738 38.008 110.718C38.1027 111.386 38.3316 112.028 38.6812 112.604C38.0656 116.238 39.0949 119.471 41.5834 120.65L47.8133 123.546C46.3763 122.865 45.4171 121.505 44.9788 119.78C44.5967 118.275 44.6105 116.493 45.0489 114.64C46.1958 114.175 47.186 113.311 47.7803 112.131C48.3748 110.95 48.468 109.66 48.14 108.495C48.8086 107.696 49.5365 107.005 50.2945 106.439C50.4944 106.29 50.6964 106.15 50.8999 106.019L50.9024 106.02C51.3443 105.737 51.7942 105.496 52.2464 105.3C53.9142 104.578 55.6123 104.472 57.0461 105.152L56.8 105.033C56.8815 105.066 56.9624 105.102 57.0424 105.139L56.7567 105.004C56.8578 105.044 56.9579 105.087 57.0567 105.134L57.0139 105.113C71.3616 111.79 85.022 116.367 95.7528 118.455C96.407 118.446 97.0351 118.545 97.625 118.758C97.6896 118.782 97.7538 118.806 97.8175 118.832C97.8936 118.845 97.9695 118.858 98.0452 118.871L98.0211 118.918L98.043 118.922L98.0394 118.929C98.0479 118.933 98.0563 118.937 98.0647 118.941C102.331 120.963 102.681 128.775 98.8482 136.39Z" fill="#AAAAAA" fill-opacity="0.99"/>
<path d="M42.5132 118.631C42.4081 117.476 42.4677 116.257 42.689 115.019C42.0588 114.975 41.4281 114.817 40.8278 114.532C40.8017 114.52 40.7758 114.507 40.7501 114.495C40.7465 114.866 40.7663 115.223 40.8084 115.562C41.0195 117.261 41.728 118.225 42.5132 118.631Z" fill="#AAAAAA" fill-opacity="0.99"/>
<path d="M44.2222 110.467C43.8325 111.243 43.5068 112.033 43.2459 112.826C42.7691 112.852 42.2818 112.764 41.8267 112.548C41.5453 112.415 41.296 112.242 41.0824 112.039C41.2966 111.193 41.6181 110.317 42.0574 109.441L44.2222 110.467Z" fill="#AAAAAA" fill-opacity="0.99"/>
</svg>
