<svg width="23" height="23" viewBox="0 0 23 23" fill="none" xmlns="http://www.w3.org/2000/svg">
<path d="M17.4629 13.2715C16.009 13.2715 14.8262 12.0887 14.8262 10.6348C14.8262 9.18088 16.009 7.99805 17.4629 7.99805C18.9168 7.99805 20.0996 9.18088 20.0996 10.6348C20.0996 12.0887 18.9168 13.2715 17.4629 13.2715Z" fill="#E0E0E0"/>
<path d="M22.3408 22.5H1.15918C0.795137 22.5 0.5 22.2049 0.5 21.8408V20.5225C0.5 20.1584 0.795137 19.8633 1.15918 19.8633H22.3408C22.7049 19.8633 23 20.1584 23 20.5225V21.8408C23 22.2049 22.7049 22.5 22.3408 22.5Z" fill="#E0E0E0"/>
<path d="M19.7344 13.8706C19.0912 14.3235 18.3076 14.5899 17.4629 14.5899C16.6182 14.5899 15.8346 14.3235 15.1914 13.8706C14.6148 14.1981 14.1155 14.6464 13.7275 15.1805V16.5674C13.7275 17.2516 13.3782 17.8556 12.8486 18.2108V18.545H22.0771V17.8858C22.0771 16.1668 21.1321 14.6645 19.7344 13.8706Z" fill="#E0E0E0"/>
<path d="M11.75 9.31641H1.20312C0.839082 9.31641 0.543945 9.61154 0.543945 9.97559V16.5674C0.543945 16.9314 0.839082 17.2266 1.20312 17.2266H4.24361L3.80416 18.5449H9.14892L8.70947 17.2266H11.75C12.114 17.2266 12.4092 16.9314 12.4092 16.5674V9.97559C12.4092 9.61154 12.114 9.31641 11.75 9.31641Z" fill="#E0E0E0"/>
<path d="M15.2656 0H5.59766C4.74956 0 4.05957 0.689985 4.05957 1.53809V5.05371C4.05957 5.90181 4.74956 6.5918 5.59766 6.5918H11.1109L13.5816 8.23891C13.6919 8.31243 13.8194 8.34961 13.9473 8.34961C14.054 8.34961 14.1608 8.32377 14.2583 8.27161C14.4726 8.15691 14.6064 7.93354 14.6064 7.69043V6.5918H15.2656C16.1137 6.5918 16.8037 5.90181 16.8037 5.05371V1.53809C16.8037 0.689985 16.1137 0 15.2656 0ZM13.5078 3.95508H7.35547C6.99143 3.95508 6.69629 3.65994 6.69629 3.2959C6.69629 2.93186 6.99143 2.63672 7.35547 2.63672H13.5078C13.8719 2.63672 14.167 2.93186 14.167 3.2959C14.167 3.65994 13.8719 3.95508 13.5078 3.95508Z" fill="#E0E0E0"/>
</svg>
