<svg width="21" height="20" viewBox="0 0 21 20" fill="none" xmlns="http://www.w3.org/2000/svg">
<path d="M15.0818 16.5854L13.1966 18.994C12.7962 19.5055 12.022 19.5055 11.6216 18.994L9.73636 16.5854H4.77273C4.51957 16.5854 4.27677 16.4826 4.09776 16.2996C3.91875 16.1167 3.81818 15.8685 3.81818 15.6098V4.97854C3.81818 4.71979 3.91875 4.47164 4.09776 4.28868C4.27677 4.10571 4.51957 4.00293 4.77273 4.00293H20.0455C20.2986 4.00293 20.5414 4.10571 20.7204 4.28868C20.8994 4.47164 21 4.71979 21 4.97854V15.6098C21 15.8685 20.8994 16.1167 20.7204 16.2996C20.5414 16.4826 20.2986 16.5854 20.0455 16.5854H15.0818ZM0.954545 0H16.2062C16.745 0 17.1818 0.436796 17.1818 0.97561C17.1818 1.51442 16.745 1.95122 16.2062 1.95122H1.90909V11.7284C1.90909 12.2556 1.48173 12.6829 0.954545 12.6829C0.427364 12.6829 0 12.2556 0 11.7284V0.97561C0 0.716862 0.100568 0.468712 0.27958 0.285749C0.458592 0.102787 0.701384 0 0.954545 0Z" fill="#3D90EF"/>
</svg>
