<svg width="18" height="18" viewBox="0 0 18 18" fill="none" xmlns="http://www.w3.org/2000/svg">
<path d="M15.667 0.666656H2.33366C1.41699 0.666656 0.675326 1.41666 0.675326 2.33332L0.666992 17.3333L4.00033 14H15.667C16.5837 14 17.3337 13.25 17.3337 12.3333V2.33332C17.3337 1.41666 16.5837 0.666656 15.667 0.666656ZM4.83366 6.49999H13.167C13.6253 6.49999 14.0003 6.87499 14.0003 7.33332C14.0003 7.79166 13.6253 8.16666 13.167 8.16666H4.83366C4.37533 8.16666 4.00033 7.79166 4.00033 7.33332C4.00033 6.87499 4.37533 6.49999 4.83366 6.49999ZM9.83366 10.6667H4.83366C4.37533 10.6667 4.00033 10.2917 4.00033 9.83332C4.00033 9.37499 4.37533 8.99999 4.83366 8.99999H9.83366C10.292 8.99999 10.667 9.37499 10.667 9.83332C10.667 10.2917 10.292 10.6667 9.83366 10.6667ZM13.167 5.66666H4.83366C4.37533 5.66666 4.00033 5.29166 4.00033 4.83332C4.00033 4.37499 4.37533 3.99999 4.83366 3.99999H13.167C13.6253 3.99999 14.0003 4.37499 14.0003 4.83332C14.0003 5.29166 13.6253 5.66666 13.167 5.66666Z" fill="#121921" fill-opacity="0.99"/>
</svg>
