<svg width="36" height="35" viewBox="0 0 36 35" fill="none" xmlns="http://www.w3.org/2000/svg">
<path d="M16.4783 3.21377C16.9573 1.73968 19.0427 1.73967 19.5217 3.21378L21.6078 9.63425C22.1969 11.4472 23.8863 12.6746 25.7925 12.6746H32.5434C34.0933 12.6746 34.7378 14.658 33.4838 15.569L28.0222 19.5371C26.4801 20.6575 25.8348 22.6435 26.4238 24.4564L28.51 30.8769C28.9889 32.351 27.3018 33.5768 26.0478 32.6657L20.5863 28.6977C19.0441 27.5772 16.9559 27.5772 15.4137 28.6977L9.95216 32.6658C8.69822 33.5768 7.01105 32.351 7.49002 30.8769L9.57615 24.4564C10.1652 22.6435 9.51991 20.6575 7.97776 19.5371L2.51618 15.569C1.26224 14.658 1.90667 12.6746 3.45664 12.6746H10.2075C12.1137 12.6746 13.8031 11.4471 14.3922 9.63425L16.4783 3.21377Z" stroke="#333333" stroke-opacity="0.99" stroke-width="2.8"/>
</svg>
