<svg width="20" height="20" viewBox="0 0 20 20" fill="none" xmlns="http://www.w3.org/2000/svg">
<path d="M16.666 1.66669H3.33268C2.41602 1.66669 1.67435 2.41669 1.67435 3.33335L1.66602 18.3334L4.99935 15H16.666C17.5827 15 18.3327 14.25 18.3327 13.3334V3.33335C18.3327 2.41669 17.5827 1.66669 16.666 1.66669ZM5.83268 7.50002H14.166C14.6243 7.50002 14.9993 7.87502 14.9993 8.33335C14.9993 8.79169 14.6243 9.16669 14.166 9.16669H5.83268C5.37435 9.16669 4.99935 8.79169 4.99935 8.33335C4.99935 7.87502 5.37435 7.50002 5.83268 7.50002ZM10.8327 11.6667H5.83268C5.37435 11.6667 4.99935 11.2917 4.99935 10.8334C4.99935 10.375 5.37435 10 5.83268 10H10.8327C11.291 10 11.666 10.375 11.666 10.8334C11.666 11.2917 11.291 11.6667 10.8327 11.6667ZM14.166 6.66669H5.83268C5.37435 6.66669 4.99935 6.29169 4.99935 5.83335C4.99935 5.37502 5.37435 5.00002 5.83268 5.00002H14.166C14.6243 5.00002 14.9993 5.37502 14.9993 5.83335C14.9993 6.29169 14.6243 6.66669 14.166 6.66669Z" fill="#121921" fill-opacity="0.99"/>
</svg>
