<svg width="24" height="24" viewBox="0 0 24 24" fill="none" xmlns="http://www.w3.org/2000/svg">
<path d="M24.0003 12.2737C24.0013 11.456 23.9308 10.6397 23.7894 9.8338H12.2432V14.4553H18.8563C18.721 15.1934 18.4346 15.8971 18.0143 16.5238C17.5941 17.1505 17.0487 17.6873 16.411 18.1019V21.1018H20.3578C22.6688 19.0135 24.0003 15.9253 24.0003 12.2737Z" fill="#4285F4"/>
<path d="M12.2429 23.9999C15.5469 23.9999 18.3289 22.9366 20.3576 21.1033L16.4108 18.1034C15.3122 18.8334 13.8975 19.25 12.2429 19.25C9.04939 19.25 6.33883 17.1401 5.36955 14.2969H1.30371V17.3884C2.32275 19.3758 3.88534 21.0465 5.81702 22.214C7.7487 23.3815 9.97345 23.9998 12.2429 23.9999V23.9999Z" fill="#34A853"/>
<path d="M5.36955 14.2971C4.85713 12.8072 4.85713 11.1937 5.36955 9.70387V6.6123H1.30371C0.446457 8.28417 0 10.1294 0 12.0005C0 13.8716 0.446457 15.7168 1.30371 17.3886L5.36955 14.2971Z" fill="#FBBC04"/>
<path d="M12.2429 4.75063C13.9889 4.72268 15.676 5.36924 16.9396 6.55058L20.4341 3.12569C18.2182 1.08588 15.2827 -0.03401 12.2429 0.000787287C9.97345 0.000888659 7.7487 0.619192 5.81702 1.78667C3.88534 2.95414 2.32275 4.62484 1.30371 6.61224L5.36955 9.70381C6.33883 6.86057 9.04939 4.75063 12.2429 4.75063V4.75063Z" fill="#EA4335"/>
</svg>
