<svg width="16" height="16" viewBox="0 0 16 16" fill="none" xmlns="http://www.w3.org/2000/svg">
<path d="M10.3979 7.99896C10.3979 9.27004 9.32239 10.3005 7.99565 10.3005C6.66893 10.3005 5.59341 9.27004 5.59341 7.99896C5.59341 6.72787 6.66893 5.69747 7.99565 5.69747C9.32239 5.69746 10.3979 6.72788 10.3979 7.99896ZM8 3.20691C6.62633 3.213 5.20248 3.54742 3.85461 4.18767C2.85384 4.68263 1.87853 5.38095 1.03192 6.24288C0.616107 6.68287 0.0857467 7.31996 0 7.99971C0.0101333 8.58852 0.641733 9.3153 1.03192 9.75655C1.82583 10.5846 2.77573 11.2635 3.85461 11.8123C5.11156 12.4223 6.50283 12.7735 8 12.793C9.37497 12.7868 10.7985 12.4486 12.1449 11.8123C13.1457 11.3173 14.1215 10.6185 14.9681 9.75655C15.3839 9.31656 15.9142 8.67946 16 7.99971C15.9899 7.4109 15.3583 6.6841 14.9681 6.24286C14.1742 5.41478 13.2238 4.73647 12.1449 4.18764C10.8886 3.5781 9.49389 3.2293 8 3.20691ZM7.99899 4.39688C10.0806 4.39688 11.768 6.01014 11.768 8.00023C11.768 9.99031 10.0806 11.6036 7.99899 11.6036C5.9174 11.6036 4.22999 9.9903 4.22999 8.00023C4.22999 6.01014 5.9174 4.39688 7.99899 4.39688Z" fill="#3D90EF"/>
</svg>
