<svg width="30" height="30" viewBox="0 0 30 30" fill="none" xmlns="http://www.w3.org/2000/svg">
<path fill-rule="evenodd" clip-rule="evenodd" d="M19.6749 17.1201C22.6916 12.887 22.3011 6.97238 18.5034 3.17469C14.2705 -1.05823 7.40761 -1.05823 3.17469 3.17469C-1.05823 7.40761 -1.05823 14.2705 3.17469 18.5034C6.97238 22.3011 12.887 22.6916 17.1201 19.6749L27.4452 30L30 27.4452L19.6749 17.1201ZM15.9486 5.72948C18.7706 8.55142 18.7706 13.1267 15.9486 15.9486C13.1267 18.7706 8.55142 18.7706 5.72948 15.9486C2.90754 13.1267 2.90754 8.55142 5.72948 5.72948C8.55142 2.90753 13.1267 2.90753 15.9486 5.72948Z" fill="#BDBDBD"/>
</svg>
