<svg width="24" height="24" viewBox="0 0 24 24" fill="none" xmlns="http://www.w3.org/2000/svg">
<path d="M21.7893 1.47999L22.3793 2.06999C23.1923 2.88399 23.0693 4.32699 22.1023 5.29299L9.9353 17.46L5.9933 18.902C5.4983 19.084 5.0163 18.848 4.9183 18.377C4.88518 18.2061 4.90077 18.0294 4.9633 17.867L6.4333 13.891L18.5663 1.75699C19.5333 0.790995 20.9763 0.666995 21.7893 1.48099V1.47999ZM9.4043 2.68999C9.53562 2.68999 9.66565 2.71586 9.78698 2.76612C9.90831 2.81637 10.0185 2.89003 10.1114 2.98289C10.2043 3.07575 10.2779 3.18599 10.3282 3.30731C10.3784 3.42864 10.4043 3.55867 10.4043 3.68999C10.4043 3.82132 10.3784 3.95135 10.3282 4.07268C10.2779 4.194 10.2043 4.30424 10.1114 4.3971C10.0185 4.48996 9.90831 4.56362 9.78698 4.61387C9.66565 4.66413 9.53562 4.68999 9.4043 4.68999H5.4043C4.87386 4.68999 4.36516 4.90071 3.99008 5.27578C3.61501 5.65085 3.4043 6.15956 3.4043 6.68999V18.69C3.4043 19.2204 3.61501 19.7291 3.99008 20.1042C4.36516 20.4793 4.87386 20.69 5.4043 20.69H17.4043C17.9347 20.69 18.4434 20.4793 18.8185 20.1042C19.1936 19.7291 19.4043 19.2204 19.4043 18.69V14.69C19.4043 14.4248 19.5097 14.1704 19.6972 13.9829C19.8847 13.7954 20.1391 13.69 20.4043 13.69C20.6695 13.69 20.9239 13.7954 21.1114 13.9829C21.2989 14.1704 21.4043 14.4248 21.4043 14.69V18.69C21.4043 19.7509 20.9829 20.7683 20.2327 21.5184C19.4826 22.2686 18.4652 22.69 17.4043 22.69H5.4043C4.34343 22.69 3.32602 22.2686 2.57587 21.5184C1.82572 20.7683 1.4043 19.7509 1.4043 18.69V6.68999C1.4043 5.62913 1.82572 4.61171 2.57587 3.86157C3.32602 3.11142 4.34343 2.68999 5.4043 2.68999H9.4043Z" fill="#3D90EF" fill-opacity="0.99"/>
</svg>
